<svg width="44" height="44" viewBox="0 0 44 44" fill="none" xmlns="http://www.w3.org/2000/svg">
<path d="M22.002 16.0044C20.4107 16.0044 18.8846 16.5916 17.7594 17.6368C16.6341 18.682 16.002 20.0996 16.002 21.5778C16.002 23.0559 16.6341 24.4735 17.7594 25.5187C18.8846 26.5639 20.4107 27.1511 22.002 27.1511C23.5933 27.1511 25.1194 26.5639 26.2446 25.5187C27.3699 24.4735 28.002 23.0559 28.002 21.5778C28.002 20.0996 27.3699 18.682 26.2446 17.6368C25.1194 16.5916 23.5933 16.0044 22.002 16.0044ZM22.002 12.2889C24.6542 12.2889 27.1977 13.2675 29.0731 15.0095C30.9484 16.7515 32.002 19.1142 32.002 21.5778C32.002 24.0413 30.9484 26.404 29.0731 28.146C27.1977 29.888 24.6542 30.8667 22.002 30.8667C19.3498 30.8667 16.8063 29.888 14.9309 28.146C13.0556 26.404 12.002 24.0413 12.002 21.5778C12.002 19.1142 13.0556 16.7515 14.9309 15.0095C16.8063 13.2675 19.3498 12.2889 22.002 12.2889ZM35.002 11.8244C35.002 12.4403 34.7386 13.031 34.2698 13.4665C33.8009 13.902 33.165 14.1467 32.502 14.1467C31.839 14.1467 31.2031 13.902 30.7342 13.4665C30.2654 13.031 30.002 12.4403 30.002 11.8244C30.002 11.2086 30.2654 10.6179 30.7342 10.1824C31.2031 9.74688 31.839 9.50222 32.502 9.50222C33.165 9.50222 33.8009 9.74688 34.2698 10.1824C34.7386 10.6179 35.002 11.2086 35.002 11.8244ZM22.002 6.71556C17.054 6.71556 16.246 6.72856 13.944 6.82331C12.376 6.89204 11.324 7.08711 10.348 7.44009C9.53167 7.71944 8.79344 8.1658 8.188 8.74611C7.56255 9.30831 7.08132 9.99405 6.78 10.7525C6.4 11.6628 6.19 12.6382 6.118 14.0928C6.014 16.1438 6 16.8609 6 21.5778C6 26.1758 6.014 26.9245 6.116 29.0628C6.19 30.5174 6.4 31.4965 6.778 32.4012C7.118 33.2093 7.518 33.7908 8.182 34.4076C8.856 35.0318 9.482 35.4052 10.342 35.7136C11.33 36.0684 12.382 36.2654 13.942 36.3322C16.15 36.4289 16.922 36.44 22 36.44C26.95 36.44 27.756 36.427 30.058 36.3322C31.622 36.2635 32.674 36.0684 33.652 35.7173C34.4683 35.438 35.2066 34.9916 35.812 34.4113C36.486 33.7871 36.888 33.2056 37.22 32.4049C37.6 31.4909 37.812 30.5137 37.884 29.0609C37.988 27.0118 38 26.2928 38 21.5778C38 16.9816 37.986 16.2311 37.884 14.0928C37.81 12.64 37.598 11.6591 37.22 10.7525C36.9193 9.99422 36.4387 9.3085 35.814 8.74611C35.2088 8.16513 34.4705 7.71813 33.654 7.43823C32.674 7.08525 31.622 6.89019 30.058 6.82331C27.852 6.7267 27.082 6.71556 22.002 6.71556ZM22 3C27.434 3 28.112 3.01858 30.246 3.11147C32.374 3.20436 33.826 3.5146 35.1 3.97533C36.42 4.44721 37.532 5.08628 38.644 6.11735C39.6614 7.04574 40.4484 8.16922 40.95 9.40933C41.444 10.5927 41.78 11.9415 41.88 13.92C41.974 15.9004 42 16.5302 42 21.5778C42 26.6254 41.98 27.2551 41.88 29.2355C41.78 31.2159 41.444 32.561 40.95 33.7462C40.4484 34.9863 39.6614 36.1098 38.644 37.0382C37.6445 37.9832 36.4351 38.7143 35.1 39.1802C33.826 39.6391 32.374 39.9512 30.246 40.0441C28.112 40.1314 27.434 40.1556 22 40.1556C16.566 40.1556 15.888 40.137 13.754 40.0441C11.626 39.9512 10.176 39.6391 8.9 39.1802C7.56494 38.7143 6.35546 37.9832 5.356 37.0382C4.33861 36.1098 3.55163 34.9863 3.05 33.7462C2.554 32.5628 2.22 31.2141 2.12 29.2355C2.024 27.2551 2 26.6254 2 21.5778C2 16.5302 2.02 15.9004 2.12 13.92C2.22 11.9396 2.554 10.5946 3.05 9.40933C3.55163 8.16922 4.33861 7.04574 5.356 6.11735C6.35546 5.17231 7.56494 4.44129 8.9 3.97533C10.174 3.5146 11.624 3.20436 13.754 3.11147C15.89 3.02415 16.566 3 22 3Z" fill="white"/>
</svg>
