<svg width="44" height="44" viewBox="0 0 44 44" fill="none" xmlns="http://www.w3.org/2000/svg">
<path d="M21.9982 4C32.4934 4 41 11.0246 41 19.6923C41 28.3581 32.4934 35.3828 22 35.3828C20.9552 35.3808 19.9115 35.3104 18.875 35.1719L10.8986 40.6992C9.992 41.2072 9.67171 41.1516 10.0445 39.9074L11.6586 32.8559C6.44714 30.0568 3 25.2062 3 19.6923C3 11.0266 11.5048 4 22 4M32.6907 19.4527L35.3507 16.7226C35.5042 16.5537 35.5898 16.3283 35.5895 16.0938C35.5892 15.8594 35.5031 15.6342 35.3492 15.4657C35.1954 15.2972 34.9858 15.1985 34.7646 15.1905C34.5435 15.1825 34.328 15.2658 34.1636 15.4227L30.6749 19.0002V16.0439C30.6749 15.8039 30.5849 15.5737 30.4247 15.404C30.2645 15.2343 30.0473 15.139 29.8208 15.139C29.5942 15.139 29.377 15.2343 29.2168 15.404C29.0567 15.5737 28.9667 15.8039 28.9667 16.0439V20.9462C28.9366 21.0863 28.9366 21.2317 28.9667 21.3718V24.1307C28.9667 24.3707 29.0567 24.6008 29.2168 24.7706C29.377 24.9403 29.5942 25.0356 29.8208 25.0356C30.0473 25.0356 30.2645 24.9403 30.4247 24.7706C30.5849 24.6008 30.6749 24.3707 30.6749 24.1307V21.5175L31.4475 20.7257L34.0315 24.6234C34.096 24.7207 34.178 24.8036 34.2728 24.8673C34.3675 24.9311 34.4732 24.9744 34.5838 24.9949C34.6943 25.0154 34.8076 25.0126 34.9172 24.9867C35.0267 24.9608 35.1303 24.9122 35.2222 24.8439C35.314 24.7755 35.3923 24.6887 35.4524 24.5883C35.5126 24.4879 35.5535 24.3759 35.5728 24.2588C35.5922 24.1416 35.5895 24.0216 35.5651 23.9055C35.5406 23.7895 35.4948 23.6797 35.4303 23.5824L32.6907 19.4527ZM27.3381 23.1414H24.6962V16.0727C24.6861 15.8401 24.5918 15.6206 24.4329 15.4599C24.274 15.2991 24.0627 15.2094 23.843 15.2094C23.6233 15.2094 23.412 15.2991 23.2531 15.4599C23.0942 15.6206 22.9999 15.8401 22.9898 16.0727V24.0463C22.9898 24.5448 23.3698 24.9512 23.8421 24.9512H27.3381C27.5646 24.9512 27.7819 24.8559 27.942 24.6862C28.1022 24.5165 28.1922 24.2863 28.1922 24.0463C28.1922 23.8063 28.1022 23.5761 27.942 23.4064C27.7819 23.2367 27.5646 23.1414 27.3381 23.1414ZM16.7397 21.0497L17.9991 17.7751L19.1536 21.0478L16.7397 21.0497ZM21.3051 21.9834L21.3088 21.9527C21.3082 21.7248 21.226 21.5056 21.079 21.3392L19.1862 15.971C19.1068 15.7152 18.9557 15.4912 18.753 15.3288C18.5502 15.1664 18.3056 15.0734 18.0516 15.0623C17.7961 15.0622 17.5464 15.1439 17.3355 15.2969C17.1247 15.4498 16.9624 15.6668 16.87 15.9193L13.8626 23.7319C13.7769 23.9541 13.7781 24.2033 13.8658 24.4246C13.9535 24.6459 14.1206 24.8212 14.3303 24.9119C14.5401 25.0027 14.7752 25.0015 14.9841 24.9085C15.193 24.8156 15.3584 24.6385 15.4441 24.4163L16.0449 22.8577H19.7906L20.3298 24.3914C20.3666 24.5061 20.4247 24.6117 20.5007 24.7021C20.5768 24.7925 20.6692 24.8659 20.7724 24.9178C20.8757 24.9697 20.9877 24.9991 21.1019 25.0043C21.2161 25.0094 21.3301 24.9903 21.4372 24.9479C21.5442 24.9056 21.6422 24.8409 21.7252 24.7577C21.8083 24.6745 21.8747 24.5745 21.9206 24.4636C21.9665 24.3527 21.991 24.2332 21.9925 24.1121C21.994 23.991 21.9725 23.8709 21.9294 23.7587L21.3051 21.9834ZM15.2921 16.0822C15.2926 15.9634 15.2709 15.8457 15.2282 15.7358C15.1856 15.6259 15.1229 15.526 15.0436 15.4419C14.9644 15.3578 14.8703 15.2911 14.7667 15.2457C14.663 15.2003 14.552 15.1771 14.4398 15.1773H8.5679C8.34138 15.1773 8.12414 15.2727 7.96397 15.4424C7.80379 15.6121 7.71381 15.8422 7.71381 16.0822C7.71381 16.3222 7.80379 16.5524 7.96397 16.7221C8.12414 16.8918 8.34138 16.9872 8.5679 16.9872H10.667V24.1498C10.667 24.3898 10.7569 24.62 10.9171 24.7897C11.0773 24.9594 11.2945 25.0548 11.521 25.0548C11.7476 25.0548 11.9648 24.9594 12.125 24.7897C12.2852 24.62 12.3751 24.3898 12.3751 24.1498V16.9872H14.438C14.5503 16.9877 14.6616 16.9646 14.7654 16.9193C14.8693 16.874 14.9636 16.8074 15.043 16.7232C15.1224 16.6391 15.1853 16.5392 15.2281 16.4291C15.2708 16.3191 15.2926 16.2012 15.2921 16.0822Z" fill="white"/>
</svg>
