<svg width="44" height="44" viewBox="0 0 44 44" fill="none" xmlns="http://www.w3.org/2000/svg">
<path d="M22.489 6C23.5571 6.006 26.2292 6.032 29.0694 6.14601L30.0774 6.19001C32.9355 6.32402 35.7917 6.55603 37.2098 6.95006C39.0999 7.48209 40.5839 9.03019 41.086 10.9943C41.886 14.1145 41.986 20.1989 41.998 21.673L42 21.977V22.325C41.986 23.7991 41.886 29.8855 41.086 33.0037C40.5779 34.9738 39.0919 36.5239 37.2098 37.0479C35.7917 37.442 32.9355 37.674 30.0774 37.808L29.0694 37.854C26.2292 37.966 23.5571 37.994 22.489 37.998L22.019 38H21.509C19.2489 37.986 9.79639 37.884 6.78824 37.0479C4.90015 36.5159 3.41407 34.9678 2.91205 33.0037C2.11201 29.8835 2.012 23.7991 2 22.325V21.673C2.012 20.1989 2.11201 14.1125 2.91205 10.9943C3.42007 9.02419 4.90615 7.47409 6.79024 6.95206C9.79639 6.11401 19.2509 6.012 21.511 6H22.489ZM17.9988 15.0006V29.0014L29.9994 22.001L17.9988 15.0006Z" fill="white"/>
</svg>
