<svg width="527" height="131" viewBox="0 0 527 131" fill="none" xmlns="http://www.w3.org/2000/svg">
<path d="M3.648 103V98.968H4.896C6.368 98.968 7.68 98.808 8.832 98.488C10.048 98.168 11.008 97.528 11.712 96.568C12.416 95.544 12.768 94.04 12.768 92.056V45.016C12.768 43.096 12.384 41.688 11.616 40.792C10.912 39.832 9.952 39.224 8.736 38.968C7.584 38.648 6.304 38.488 4.896 38.488H3.648V34.456H33.024C39.616 34.456 45.248 35.8 49.92 38.488C54.592 41.112 58.144 44.984 60.576 50.104C63.072 55.16 64.32 61.336 64.32 68.632C64.32 75.608 63.136 81.688 60.768 86.872C58.464 91.992 55.008 95.96 50.4 98.776C45.792 101.592 40 103 33.024 103H3.648ZM30.816 98.104C35.936 98.104 40.16 96.984 43.488 94.744C46.88 92.44 49.408 89.112 51.072 84.76C52.8 80.344 53.664 74.968 53.664 68.632C53.664 62.296 52.8 56.952 51.072 52.6C49.408 48.248 46.88 44.952 43.488 42.712C40.16 40.408 35.968 39.256 30.912 39.256H22.464V98.104H30.816ZM89.43 103.96C86.614 103.96 84.054 103.416 81.75 102.328C79.51 101.176 77.75 99.48 76.47 97.24C75.19 94.936 74.55 92.056 74.55 88.6C74.55 83.48 76.342 79.704 79.926 77.272C83.574 74.84 89.078 73.496 96.438 73.24L104.406 72.952V67.192C104.406 64.888 104.214 62.872 103.83 61.144C103.446 59.352 102.614 57.944 101.334 56.92C100.054 55.896 98.102 55.384 95.478 55.384C93.046 55.384 91.19 55.832 89.91 56.728C88.63 57.624 87.766 58.872 87.318 60.472C86.934 62.008 86.742 63.8 86.742 65.848C84.054 65.848 82.006 65.4 80.598 64.504C79.254 63.544 78.582 61.976 78.582 59.8C78.582 57.56 79.35 55.768 80.886 54.424C82.486 53.08 84.598 52.12 87.222 51.544C89.846 50.904 92.726 50.584 95.862 50.584C101.75 50.584 106.134 51.832 109.014 54.328C111.958 56.824 113.43 61.112 113.43 67.192V92.056C113.43 93.848 113.622 95.256 114.006 96.28C114.39 97.24 115.03 97.944 115.926 98.392C116.822 98.776 117.974 98.968 119.382 98.968H119.67V103H106.71L105.174 94.744H104.406C103.062 96.536 101.75 98.136 100.47 99.544C99.19 100.888 97.686 101.976 95.958 102.808C94.294 103.576 92.118 103.96 89.43 103.96ZM91.638 98.008C94.262 98.008 96.502 97.464 98.358 96.376C100.278 95.288 101.75 93.752 102.774 91.768C103.862 89.72 104.406 87.352 104.406 84.664V76.888L98.262 77.176C94.614 77.304 91.734 77.848 89.622 78.808C87.574 79.768 86.102 81.112 85.206 82.84C84.31 84.504 83.862 86.584 83.862 89.08C83.862 91.064 84.15 92.728 84.726 94.072C85.302 95.352 86.166 96.344 87.318 97.048C88.47 97.688 89.91 98.008 91.638 98.008ZM126.532 103V98.968H127.78C129.252 98.968 130.532 98.808 131.62 98.488C132.708 98.168 133.572 97.528 134.212 96.568C134.852 95.544 135.172 94.04 135.172 92.056V62.104C135.172 60.184 134.852 58.776 134.212 57.88C133.572 56.92 132.676 56.312 131.524 56.056C130.436 55.736 129.188 55.576 127.78 55.576H127.492V51.544H142.564L143.812 59.32H144.292C145.572 56.888 146.948 55.064 148.42 53.848C149.892 52.568 151.492 51.704 153.22 51.256C154.948 50.808 156.804 50.584 158.788 50.584C160.836 50.584 162.756 50.872 164.548 51.448C166.404 52.024 168.036 52.952 169.444 54.232C170.852 55.448 171.94 57.144 172.708 59.32H173.476C174.756 56.888 176.164 55.064 177.7 53.848C179.3 52.568 180.996 51.704 182.788 51.256C184.644 50.808 186.564 50.584 188.548 50.584C193.476 50.584 197.316 52.088 200.068 55.096C202.82 58.04 204.196 62.808 204.196 69.4V92.056C204.196 94.04 204.516 95.544 205.156 96.568C205.796 97.528 206.66 98.168 207.748 98.488C208.9 98.808 210.18 98.968 211.588 98.968H211.876V103H195.172V69.88C195.172 65.72 194.404 62.488 192.868 60.184C191.396 57.88 188.804 56.728 185.092 56.728C182.468 56.728 180.356 57.4 178.756 58.744C177.22 60.024 176.1 61.752 175.396 63.928C174.756 66.104 174.436 68.472 174.436 71.032V92.056C174.436 94.04 174.756 95.544 175.396 96.568C176.036 97.528 176.9 98.168 177.988 98.488C179.14 98.808 180.42 98.968 181.828 98.968H182.116V103H165.412V69.88C165.412 65.72 164.644 62.488 163.108 60.184C161.636 57.88 159.044 56.728 155.332 56.728C152.58 56.728 150.372 57.464 148.708 58.936C147.108 60.344 145.956 62.232 145.252 64.6C144.548 66.968 144.196 69.528 144.196 72.28V92.536C144.196 94.392 144.548 95.8 145.252 96.76C146.02 97.656 146.98 98.264 148.132 98.584C149.348 98.84 150.66 98.968 152.068 98.968H152.356V103H126.532ZM217.762 103V98.968H218.05C219.522 98.968 220.834 98.808 221.986 98.488C223.202 98.168 224.162 97.528 224.866 96.568C225.57 95.544 225.922 94.04 225.922 92.056V62.104C225.922 60.184 225.538 58.776 224.77 57.88C224.066 56.92 223.106 56.312 221.89 56.056C220.738 55.736 219.458 55.576 218.05 55.576H217.762V51.544H232.546L234.37 61.048H234.85C235.682 59.128 236.578 57.368 237.538 55.768C238.498 54.168 239.778 52.92 241.378 52.024C242.978 51.064 245.186 50.584 248.002 50.584C251.522 50.584 254.114 51.192 255.778 52.408C257.506 53.624 258.37 55.352 258.37 57.592C258.37 59.576 257.666 61.208 256.258 62.488C254.914 63.768 252.642 64.408 249.442 64.408C249.442 62.616 249.282 61.176 248.962 60.088C248.642 59 248.098 58.2 247.33 57.688C246.626 57.176 245.634 56.92 244.354 56.92C242.562 56.92 241.058 57.624 239.842 59.032C238.626 60.44 237.666 62.232 236.962 64.408C236.258 66.584 235.746 68.856 235.426 71.224C235.106 73.528 234.946 75.608 234.946 77.464V92.536C234.946 94.392 235.298 95.8 236.002 96.76C236.77 97.656 237.73 98.264 238.882 98.584C240.098 98.84 241.41 98.968 242.818 98.968H245.506V103H217.762ZM287.333 103.96C280.421 103.96 274.981 101.752 271.013 97.336C267.045 92.92 265.061 86.2 265.061 77.176C265.061 68.216 266.949 61.56 270.725 57.208C274.565 52.792 280.197 50.584 287.621 50.584C294.533 50.584 299.973 52.792 303.941 57.208C307.909 61.56 309.893 68.216 309.893 77.176C309.893 86.2 307.973 92.92 304.133 97.336C300.357 101.752 294.757 103.96 287.333 103.96ZM287.525 98.968C290.725 98.968 293.285 98.168 295.205 96.568C297.125 94.904 298.501 92.44 299.333 89.176C300.165 85.912 300.581 81.912 300.581 77.176C300.581 72.376 300.133 68.408 299.237 65.272C298.405 62.072 297.029 59.672 295.109 58.072C293.189 56.472 290.629 55.672 287.429 55.672C284.229 55.672 281.669 56.472 279.749 58.072C277.829 59.672 276.453 62.072 275.621 65.272C274.789 68.408 274.373 72.376 274.373 77.176C274.373 81.912 274.789 85.912 275.621 89.176C276.517 92.44 277.925 94.904 279.845 96.568C281.765 98.168 284.325 98.968 287.525 98.968ZM316.916 103V98.968H317.684C319.156 98.968 320.468 98.808 321.62 98.488C322.836 98.168 323.796 97.528 324.5 96.568C325.204 95.544 325.556 94.04 325.556 92.056V40.6C325.556 38.68 325.172 37.272 324.404 36.376C323.7 35.416 322.74 34.808 321.523 34.552C320.372 34.232 319.092 34.072 317.684 34.072H316.916V30.04H334.58V67.096C334.58 67.928 334.548 69.016 334.484 70.36C334.484 71.704 334.452 73.048 334.388 74.392C334.324 75.736 334.26 76.888 334.196 77.848C334.196 78.744 334.196 79.192 334.196 79.192L346.196 66.04C347.604 64.504 348.66 63.224 349.364 62.2C350.132 61.112 350.676 60.216 350.996 59.512C351.316 58.744 351.476 58.072 351.476 57.496C351.476 56.664 351.092 56.152 350.324 55.96C349.556 55.704 348.372 55.576 346.772 55.576V51.544H367.988V55.576C366.9 55.576 365.812 55.768 364.724 56.152C363.636 56.536 362.548 57.112 361.46 57.88C360.372 58.648 359.252 59.608 358.1 60.76C356.948 61.848 355.732 63.096 354.452 64.504L347.732 72.088L360.5 91.096C361.652 92.76 362.74 94.2 363.764 95.416C364.852 96.568 366.004 97.464 367.22 98.104C368.436 98.68 369.748 98.968 371.156 98.968H371.444V103H370.1C367.348 103 365.044 102.904 363.188 102.712C361.332 102.52 359.764 102.136 358.484 101.56C357.268 100.92 356.084 99.992 354.932 98.776C353.844 97.496 352.628 95.8 351.284 93.688L341.684 78.616L334.58 83.896V92.536C334.58 94.392 334.932 95.8 335.636 96.76C336.404 97.656 337.364 98.264 338.516 98.584C339.732 98.84 341.044 98.968 342.452 98.968H342.74V103H316.916ZM374.224 113.752C376.336 113.048 378.064 112.248 379.408 111.352C380.752 110.52 381.744 109.56 382.384 108.472C383.024 107.448 383.344 106.328 383.344 105.112C383.344 104.344 383.088 103.704 382.576 103.192C382.128 102.744 381.552 102.36 380.848 102.04C380.208 101.656 379.536 101.24 378.832 100.792C378.128 100.344 377.52 99.768 377.008 99.064C376.56 98.36 376.336 97.432 376.336 96.28C376.336 94.424 376.912 93.016 378.064 92.056C379.28 91.096 380.784 90.616 382.576 90.616C384.56 90.616 386.288 91.352 387.76 92.824C389.232 94.232 389.968 96.28 389.968 98.968C389.968 103.064 388.752 106.808 386.32 110.2C383.952 113.592 379.92 116.12 374.224 117.784V113.752Z" fill="white"/>
<path d="M435.736 66.136L438.488 62.872C440.835 64.024 443.309 65.3467 445.912 66.84C448.515 68.3333 450.989 69.8267 453.336 71.32C455.683 72.7707 457.603 74.1147 459.096 75.352L456.216 79.192C454.765 77.912 452.888 76.504 450.584 74.968C448.28 73.432 445.805 71.896 443.16 70.36C440.557 68.7813 438.083 67.3733 435.736 66.136ZM437.08 49.24H441.816C441.688 53.72 441.368 57.624 440.856 60.952C440.344 64.28 439.405 67.1387 438.04 69.528C436.675 71.8747 434.691 73.8587 432.088 75.48C429.485 77.1013 426.051 78.424 421.784 79.448C421.699 79.064 421.485 78.6373 421.144 78.168C420.845 77.656 420.504 77.1653 420.12 76.696C419.779 76.2267 419.459 75.864 419.16 75.608C423.128 74.712 426.264 73.6027 428.568 72.28C430.915 70.9147 432.685 69.208 433.88 67.16C435.075 65.112 435.885 62.6373 436.312 59.736C436.739 56.792 436.995 53.2933 437.08 49.24ZM426.072 53.4L430.296 54.36C429.699 56.408 428.888 58.5413 427.864 60.76C426.84 62.9787 425.667 64.8347 424.344 66.328L420.248 64.6C421.485 63.32 422.616 61.656 423.64 59.608C424.707 57.5173 425.517 55.448 426.072 53.4ZM425.368 81.304L429.72 82.2C429.123 84.5467 428.291 86.936 427.224 89.368C426.157 91.8 424.899 93.848 423.448 95.512L419.352 93.464C420.675 92.0133 421.869 90.2 422.936 88.024C424.003 85.8053 424.813 83.5653 425.368 81.304ZM452.248 53.208L457.048 54.936C455.811 56.8987 454.488 58.8827 453.08 60.888C451.672 62.8933 450.349 64.6213 449.112 66.072L445.4 64.536C446.211 63.512 447.043 62.3387 447.896 61.016C448.749 59.6933 449.56 58.3493 450.328 56.984C451.096 55.576 451.736 54.3173 452.248 53.208ZM452.888 80.856L457.816 82.584C456.963 83.992 456.045 85.4427 455.064 86.936C454.083 88.3867 453.101 89.7733 452.12 91.096C451.181 92.4187 450.264 93.592 449.368 94.616L445.528 93.016C446.381 91.9493 447.256 90.712 448.152 89.304C449.091 87.8533 449.965 86.4027 450.776 84.952C451.629 83.4587 452.333 82.0933 452.888 80.856ZM436.824 75.864H441.496C441.368 80.5573 441.005 84.696 440.408 88.28C439.811 91.8213 438.744 94.872 437.208 97.432C435.715 99.992 433.517 102.147 430.616 103.896C427.715 105.645 423.832 107.075 418.968 108.184C418.84 107.757 418.605 107.288 418.264 106.776C417.965 106.264 417.645 105.752 417.304 105.24C416.963 104.771 416.621 104.365 416.28 104.024C419.907 103.299 422.915 102.403 425.304 101.336C427.736 100.227 429.677 98.9253 431.128 97.432C432.579 95.896 433.688 94.1253 434.456 92.12C435.267 90.072 435.821 87.704 436.12 85.016C436.461 82.2853 436.696 79.2347 436.824 75.864ZM440.728 84.504C441.923 89.624 444.12 93.8907 447.32 97.304C450.563 100.717 455.128 102.893 461.016 103.832C460.717 104.131 460.355 104.536 459.928 105.048C459.544 105.56 459.181 106.072 458.84 106.584C458.541 107.096 458.285 107.565 458.072 107.992C453.891 107.053 450.371 105.56 447.512 103.512C444.653 101.507 442.349 98.968 440.6 95.896C438.893 92.7813 437.592 89.1973 436.696 85.144L440.728 84.504ZM404.696 53.592L407.64 50.264C408.92 50.904 410.285 51.6507 411.736 52.504C413.187 53.3147 414.552 54.168 415.832 55.064C417.155 55.9173 418.221 56.7067 419.032 57.432L415.96 61.208C415.192 60.3973 414.168 59.544 412.888 58.648C411.608 57.7093 410.243 56.8133 408.792 55.96C407.384 55.064 406.019 54.2747 404.696 53.592ZM401.304 70.936L404.312 67.608C405.635 68.2053 407 68.9093 408.408 69.72C409.859 70.488 411.224 71.2987 412.504 72.152C413.784 72.9627 414.829 73.7307 415.64 74.456L412.568 78.168C411.757 77.4427 410.712 76.6533 409.432 75.8C408.195 74.904 406.851 74.0293 405.4 73.176C403.992 72.3227 402.627 71.576 401.304 70.936ZM402.968 103.64C404.035 101.976 405.187 100.035 406.424 97.816C407.661 95.5547 408.92 93.1653 410.2 90.648C411.48 88.1307 412.653 85.6773 413.72 83.288L417.56 86.424C416.579 88.6427 415.512 90.9467 414.36 93.336C413.208 95.7253 412.013 98.072 410.776 100.376C409.581 102.68 408.429 104.813 407.32 106.776L402.968 103.64ZM519.896 79.128L523.48 82.008C521.859 83.6293 520.088 85.272 518.168 86.936C516.248 88.5573 514.477 89.944 512.856 91.096L509.976 88.536C511 87.7253 512.131 86.7867 513.368 85.72C514.605 84.6107 515.8 83.48 516.952 82.328C518.104 81.176 519.085 80.1093 519.896 79.128ZM490.392 82.264L493.656 79.704C495.064 80.8987 496.493 82.264 497.944 83.8C499.395 85.336 500.483 86.7013 501.208 87.896L497.752 90.84C497.069 89.6027 496.003 88.1947 494.552 86.616C493.144 84.9947 491.757 83.544 490.392 82.264ZM497.432 54.36H515.992V58.136H497.432V54.36ZM495.448 63.768H514.584V67.544H495.448V63.768ZM488.6 72.216H523.8V76.44H488.6V72.216ZM503.896 73.688H508.312V103.192C508.312 104.387 508.163 105.304 507.864 105.944C507.608 106.627 507.053 107.139 506.2 107.48C505.432 107.821 504.387 108.035 503.064 108.12C501.784 108.205 500.205 108.248 498.328 108.248C498.243 107.608 498.051 106.904 497.752 106.136C497.496 105.368 497.219 104.685 496.92 104.088C498.285 104.131 499.523 104.152 500.632 104.152C501.784 104.152 502.552 104.152 502.936 104.152C503.32 104.109 503.576 104.024 503.704 103.896C503.832 103.768 503.896 103.512 503.896 103.128V73.688ZM486.616 100.696C488.451 99.672 490.648 98.3493 493.208 96.728C495.811 95.064 498.456 93.3787 501.144 91.672L502.616 95.256C500.312 96.9627 497.987 98.648 495.64 100.312C493.336 101.976 491.16 103.512 489.112 104.92L486.616 100.696ZM507.928 74.072C508.355 76.504 508.952 79.0427 509.72 81.688C510.531 84.2907 511.597 86.8293 512.92 89.304C514.243 91.7787 515.907 94.0613 517.912 96.152C519.917 98.2 522.328 99.8853 525.144 101.208C524.845 101.507 524.504 101.891 524.12 102.36C523.736 102.829 523.352 103.299 522.968 103.768C522.627 104.28 522.349 104.749 522.136 105.176C519.363 103.64 516.995 101.763 515.032 99.544C513.069 97.3253 511.427 94.936 510.104 92.376C508.781 89.816 507.736 87.256 506.968 84.696C506.2 82.136 505.603 79.7467 505.176 77.528L507.928 74.072ZM496.92 49.24L501.528 49.816C501.059 51.9493 500.504 54.232 499.864 56.664C499.267 59.096 498.669 61.4427 498.072 63.704C497.475 65.9653 496.899 67.9493 496.344 69.656L491.8 68.952C492.355 67.2453 492.931 65.2613 493.528 63C494.168 60.696 494.787 58.3493 495.384 55.96C495.981 53.528 496.493 51.288 496.92 49.24ZM514.136 54.36H514.648L515.416 54.104L518.744 54.616C518.445 56.536 518.083 58.6693 517.656 61.016C517.229 63.32 516.76 65.6453 516.248 67.992C515.779 70.296 515.309 72.4507 514.84 74.456L510.424 73.944C510.893 71.896 511.363 69.6773 511.832 67.288C512.301 64.8987 512.749 62.616 513.176 60.44C513.603 58.2213 513.923 56.3867 514.136 54.936V54.36ZM475.544 49.24L479.768 50.84C479 52.4187 478.147 54.0613 477.208 55.768C476.312 57.4747 475.395 59.1387 474.456 60.76C473.56 62.3387 472.707 63.7253 471.896 64.92L468.568 63.448C469.379 62.2107 470.211 60.76 471.064 59.096C471.96 57.432 472.792 55.7253 473.56 53.976C474.371 52.2267 475.032 50.648 475.544 49.24ZM482.712 56.536L486.744 58.456C485.293 60.8027 483.672 63.32 481.88 66.008C480.088 68.6533 478.275 71.2133 476.44 73.688C474.648 76.1627 472.941 78.3173 471.32 80.152L468.376 78.488C469.571 77.08 470.829 75.48 472.152 73.688C473.475 71.8533 474.776 69.9547 476.056 67.992C477.336 65.9867 478.552 64.0027 479.704 62.04C480.856 60.0773 481.859 58.2427 482.712 56.536ZM465.368 62.616L467.864 59.544C469.016 60.568 470.168 61.6987 471.32 62.936C472.515 64.1733 473.603 65.3893 474.584 66.584C475.565 67.7787 476.333 68.8667 476.888 69.848L474.2 73.432C473.645 72.408 472.877 71.256 471.896 69.976C470.957 68.696 469.912 67.416 468.76 66.136C467.608 64.856 466.477 63.6827 465.368 62.616ZM480.216 71.192L483.736 69.784C484.632 71.1493 485.485 72.6427 486.296 74.264C487.107 75.8853 487.832 77.464 488.472 79C489.155 80.4933 489.645 81.816 489.944 82.968L486.104 84.76C485.848 83.5227 485.4 82.136 484.76 80.6C484.163 79.0213 483.48 77.4213 482.712 75.8C481.944 74.136 481.112 72.6 480.216 71.192ZM464.792 77.528C467.565 77.4 470.851 77.2507 474.648 77.08C478.488 76.8667 482.413 76.6533 486.424 76.44V80.472C482.669 80.728 478.936 80.984 475.224 81.24C471.555 81.4533 468.269 81.6453 465.368 81.816L464.792 77.528ZM481.944 86.68L485.464 85.656C486.275 87.4907 487 89.496 487.64 91.672C488.28 93.8053 488.707 95.6613 488.92 97.24L485.144 98.456C485.016 96.8347 484.632 94.936 483.992 92.76C483.395 90.5413 482.712 88.5147 481.944 86.68ZM468.696 85.848L472.728 86.488C472.301 89.5173 471.704 92.504 470.936 95.448C470.211 98.3493 469.357 100.824 468.376 102.872C468.12 102.701 467.757 102.509 467.288 102.296C466.819 102.04 466.349 101.805 465.88 101.592C465.411 101.379 465.005 101.208 464.664 101.08C465.731 99.1173 466.584 96.792 467.224 94.104C467.864 91.3733 468.355 88.6213 468.696 85.848ZM475.48 79.448H479.704V108.12H475.48V79.448Z" fill="white"/>
</svg>
