<svg width="213" height="48" viewBox="0 0 213 48" fill="none" xmlns="http://www.w3.org/2000/svg">
<path d="M178.776 25.176L179.808 23.952C180.688 24.384 181.616 24.88 182.592 25.44C183.568 26 184.496 26.56 185.376 27.12C186.256 27.664 186.976 28.168 187.536 28.632L186.456 30.072C185.912 29.592 185.208 29.064 184.344 28.488C183.48 27.912 182.552 27.336 181.56 26.76C180.584 26.168 179.656 25.64 178.776 25.176ZM179.28 18.84H181.056C181.008 20.52 180.888 21.984 180.696 23.232C180.504 24.48 180.152 25.552 179.64 26.448C179.128 27.328 178.384 28.072 177.408 28.68C176.432 29.288 175.144 29.784 173.544 30.168C173.512 30.024 173.432 29.864 173.304 29.688C173.192 29.496 173.064 29.312 172.92 29.136C172.792 28.96 172.672 28.824 172.56 28.728C174.048 28.392 175.224 27.976 176.088 27.48C176.968 26.968 177.632 26.328 178.08 25.56C178.528 24.792 178.832 23.864 178.992 22.776C179.152 21.672 179.248 20.36 179.28 18.84ZM175.152 20.4L176.736 20.76C176.512 21.528 176.208 22.328 175.824 23.16C175.44 23.992 175 24.688 174.504 25.248L172.968 24.6C173.432 24.12 173.856 23.496 174.24 22.728C174.64 21.944 174.944 21.168 175.152 20.4ZM174.888 30.864L176.52 31.2C176.296 32.08 175.984 32.976 175.584 33.888C175.184 34.8 174.712 35.568 174.168 36.192L172.632 35.424C173.128 34.88 173.576 34.2 173.976 33.384C174.376 32.552 174.68 31.712 174.888 30.864ZM184.968 20.328L186.768 20.976C186.304 21.712 185.808 22.456 185.28 23.208C184.752 23.96 184.256 24.608 183.792 25.152L182.4 24.576C182.704 24.192 183.016 23.752 183.336 23.256C183.656 22.76 183.96 22.256 184.248 21.744C184.536 21.216 184.776 20.744 184.968 20.328ZM185.208 30.696L187.056 31.344C186.736 31.872 186.392 32.416 186.024 32.976C185.656 33.52 185.288 34.04 184.92 34.536C184.568 35.032 184.224 35.472 183.888 35.856L182.448 35.256C182.768 34.856 183.096 34.392 183.432 33.864C183.784 33.32 184.112 32.776 184.416 32.232C184.736 31.672 185 31.16 185.208 30.696ZM179.184 28.824H180.936C180.888 30.584 180.752 32.136 180.528 33.48C180.304 34.808 179.904 35.952 179.328 36.912C178.768 37.872 177.944 38.68 176.856 39.336C175.768 39.992 174.312 40.528 172.488 40.944C172.44 40.784 172.352 40.608 172.224 40.416C172.112 40.224 171.992 40.032 171.864 39.84C171.736 39.664 171.608 39.512 171.48 39.384C172.84 39.112 173.968 38.776 174.864 38.376C175.776 37.96 176.504 37.472 177.048 36.912C177.592 36.336 178.008 35.672 178.296 34.92C178.6 34.152 178.808 33.264 178.92 32.256C179.048 31.232 179.136 30.088 179.184 28.824ZM180.648 32.064C181.096 33.984 181.92 35.584 183.12 36.864C184.336 38.144 186.048 38.96 188.256 39.312C188.144 39.424 188.008 39.576 187.848 39.768C187.704 39.96 187.568 40.152 187.44 40.344C187.328 40.536 187.232 40.712 187.152 40.872C185.584 40.52 184.264 39.96 183.192 39.192C182.12 38.44 181.256 37.488 180.6 36.336C179.96 35.168 179.472 33.824 179.136 32.304L180.648 32.064ZM167.136 20.472L168.24 19.224C168.72 19.464 169.232 19.744 169.776 20.064C170.32 20.368 170.832 20.688 171.312 21.024C171.808 21.344 172.208 21.64 172.512 21.912L171.36 23.328C171.072 23.024 170.688 22.704 170.208 22.368C169.728 22.016 169.216 21.68 168.672 21.36C168.144 21.024 167.632 20.728 167.136 20.472ZM165.864 26.976L166.992 25.728C167.488 25.952 168 26.216 168.528 26.52C169.072 26.808 169.584 27.112 170.064 27.432C170.544 27.736 170.936 28.024 171.24 28.296L170.088 29.688C169.784 29.416 169.392 29.12 168.912 28.8C168.448 28.464 167.944 28.136 167.4 27.816C166.872 27.496 166.36 27.216 165.864 26.976ZM166.488 39.24C166.888 38.616 167.32 37.888 167.784 37.056C168.248 36.208 168.72 35.312 169.2 34.368C169.68 33.424 170.12 32.504 170.52 31.608L171.96 32.784C171.592 33.616 171.192 34.48 170.76 35.376C170.328 36.272 169.88 37.152 169.416 38.016C168.968 38.88 168.536 39.68 168.12 40.416L166.488 39.24ZM210.336 30.048L211.68 31.128C211.072 31.736 210.408 32.352 209.688 32.976C208.968 33.584 208.304 34.104 207.696 34.536L206.616 33.576C207 33.272 207.424 32.92 207.888 32.52C208.352 32.104 208.8 31.68 209.232 31.248C209.664 30.816 210.032 30.416 210.336 30.048ZM199.272 31.224L200.496 30.264C201.024 30.712 201.56 31.224 202.104 31.8C202.648 32.376 203.056 32.888 203.328 33.336L202.032 34.44C201.776 33.976 201.376 33.448 200.832 32.856C200.304 32.248 199.784 31.704 199.272 31.224ZM201.912 20.76H208.872V22.176H201.912V20.76ZM201.168 24.288H208.344V25.704H201.168V24.288ZM198.6 27.456H211.8V29.04H198.6V27.456ZM204.336 28.008H205.992V39.072C205.992 39.52 205.936 39.864 205.824 40.104C205.728 40.36 205.52 40.552 205.2 40.68C204.912 40.808 204.52 40.888 204.024 40.92C203.544 40.952 202.952 40.968 202.248 40.968C202.216 40.728 202.144 40.464 202.032 40.176C201.936 39.888 201.832 39.632 201.72 39.408C202.232 39.424 202.696 39.432 203.112 39.432C203.544 39.432 203.832 39.432 203.976 39.432C204.12 39.416 204.216 39.384 204.264 39.336C204.312 39.288 204.336 39.192 204.336 39.048V28.008ZM197.856 38.136C198.544 37.752 199.368 37.256 200.328 36.648C201.304 36.024 202.296 35.392 203.304 34.752L203.856 36.096C202.992 36.736 202.12 37.368 201.24 37.992C200.376 38.616 199.56 39.192 198.792 39.72L197.856 38.136ZM205.848 28.152C206.008 29.064 206.232 30.016 206.52 31.008C206.824 31.984 207.224 32.936 207.72 33.864C208.216 34.792 208.84 35.648 209.592 36.432C210.344 37.2 211.248 37.832 212.304 38.328C212.192 38.44 212.064 38.584 211.92 38.76C211.776 38.936 211.632 39.112 211.488 39.288C211.36 39.48 211.256 39.656 211.176 39.816C210.136 39.24 209.248 38.536 208.512 37.704C207.776 36.872 207.16 35.976 206.664 35.016C206.168 34.056 205.776 33.096 205.488 32.136C205.2 31.176 204.976 30.28 204.816 29.448L205.848 28.152ZM201.72 18.84L203.448 19.056C203.272 19.856 203.064 20.712 202.824 21.624C202.6 22.536 202.376 23.416 202.152 24.264C201.928 25.112 201.712 25.856 201.504 26.496L199.8 26.232C200.008 25.592 200.224 24.848 200.448 24C200.688 23.136 200.92 22.256 201.144 21.36C201.368 20.448 201.56 19.608 201.72 18.84ZM208.176 20.76H208.368L208.656 20.664L209.904 20.856C209.792 21.576 209.656 22.376 209.496 23.256C209.336 24.12 209.16 24.992 208.968 25.872C208.792 26.736 208.616 27.544 208.44 28.296L206.784 28.104C206.96 27.336 207.136 26.504 207.312 25.608C207.488 24.712 207.656 23.856 207.816 23.04C207.976 22.208 208.096 21.52 208.176 20.976V20.76ZM193.704 18.84L195.288 19.44C195 20.032 194.68 20.648 194.328 21.288C193.992 21.928 193.648 22.552 193.296 23.16C192.96 23.752 192.64 24.272 192.336 24.72L191.088 24.168C191.392 23.704 191.704 23.16 192.024 22.536C192.36 21.912 192.672 21.272 192.96 20.616C193.264 19.96 193.512 19.368 193.704 18.84ZM196.392 21.576L197.904 22.296C197.36 23.176 196.752 24.12 196.08 25.128C195.408 26.12 194.728 27.08 194.04 28.008C193.368 28.936 192.728 29.744 192.12 30.432L191.016 29.808C191.464 29.28 191.936 28.68 192.432 28.008C192.928 27.32 193.416 26.608 193.896 25.872C194.376 25.12 194.832 24.376 195.264 23.64C195.696 22.904 196.072 22.216 196.392 21.576ZM189.888 23.856L190.824 22.704C191.256 23.088 191.688 23.512 192.12 23.976C192.568 24.44 192.976 24.896 193.344 25.344C193.712 25.792 194 26.2 194.208 26.568L193.2 27.912C192.992 27.528 192.704 27.096 192.336 26.616C191.984 26.136 191.592 25.656 191.16 25.176C190.728 24.696 190.304 24.256 189.888 23.856ZM195.456 27.072L196.776 26.544C197.112 27.056 197.432 27.616 197.736 28.224C198.04 28.832 198.312 29.424 198.552 30C198.808 30.56 198.992 31.056 199.104 31.488L197.664 32.16C197.568 31.696 197.4 31.176 197.16 30.6C196.936 30.008 196.68 29.408 196.392 28.8C196.104 28.176 195.792 27.6 195.456 27.072ZM189.672 29.448C190.712 29.4 191.944 29.344 193.368 29.28C194.808 29.2 196.28 29.12 197.784 29.04V30.552C196.376 30.648 194.976 30.744 193.584 30.84C192.208 30.92 190.976 30.992 189.888 31.056L189.672 29.448ZM196.104 32.88L197.424 32.496C197.728 33.184 198 33.936 198.24 34.752C198.48 35.552 198.64 36.248 198.72 36.84L197.304 37.296C197.256 36.688 197.112 35.976 196.872 35.16C196.648 34.328 196.392 33.568 196.104 32.88ZM191.136 32.568L192.648 32.808C192.488 33.944 192.264 35.064 191.976 36.168C191.704 37.256 191.384 38.184 191.016 38.952C190.92 38.888 190.784 38.816 190.608 38.736C190.432 38.64 190.256 38.552 190.08 38.472C189.904 38.392 189.752 38.328 189.624 38.28C190.024 37.544 190.344 36.672 190.584 35.664C190.824 34.64 191.008 33.608 191.136 32.568ZM193.68 30.168H195.264V40.92H193.68V30.168Z" fill="#3B5C4D"/>
<path d="M1.33 38V36.53H1.785C2.32167 36.53 2.8 36.4717 3.22 36.355C3.66333 36.2383 4.01333 36.005 4.27 35.655C4.52667 35.2817 4.655 34.7333 4.655 34.01V16.86C4.655 16.16 4.515 15.6467 4.235 15.32C3.97833 14.97 3.62833 14.7483 3.185 14.655C2.765 14.5383 2.29833 14.48 1.785 14.48H1.33V13.01H12.04C14.4433 13.01 16.4967 13.5 18.2 14.48C19.9033 15.4367 21.1983 16.8483 22.085 18.715C22.995 20.5583 23.45 22.81 23.45 25.47C23.45 28.0133 23.0183 30.23 22.155 32.12C21.315 33.9867 20.055 35.4333 18.375 36.46C16.695 37.4867 14.5833 38 12.04 38H1.33ZM11.235 36.215C13.1017 36.215 14.6417 35.8067 15.855 34.99C17.0917 34.15 18.0133 32.9367 18.62 31.35C19.25 29.74 19.565 27.78 19.565 25.47C19.565 23.16 19.25 21.2117 18.62 19.625C18.0133 18.0383 17.0917 16.8367 15.855 16.02C14.6417 15.18 13.1133 14.76 11.27 14.76H8.19V36.215H11.235ZM32.6047 38.35C31.578 38.35 30.6447 38.1517 29.8047 37.755C28.988 37.335 28.3464 36.7167 27.8797 35.9C27.413 35.06 27.1797 34.01 27.1797 32.75C27.1797 30.8833 27.833 29.5067 29.1397 28.62C30.4697 27.7333 32.4764 27.2433 35.1597 27.15L38.0647 27.045V24.945C38.0647 24.105 37.9947 23.37 37.8547 22.74C37.7147 22.0867 37.4114 21.5733 36.9447 21.2C36.478 20.8267 35.7664 20.64 34.8097 20.64C33.923 20.64 33.2464 20.8033 32.7797 21.13C32.313 21.4567 31.998 21.9117 31.8347 22.495C31.6947 23.055 31.6247 23.7083 31.6247 24.455C30.6447 24.455 29.898 24.2917 29.3847 23.965C28.8947 23.615 28.6497 23.0433 28.6497 22.25C28.6497 21.4333 28.9297 20.78 29.4897 20.29C30.073 19.8 30.843 19.45 31.7997 19.24C32.7564 19.0067 33.8064 18.89 34.9497 18.89C37.0964 18.89 38.6947 19.345 39.7447 20.255C40.818 21.165 41.3547 22.7283 41.3547 24.945V34.01C41.3547 34.6633 41.4247 35.1767 41.5647 35.55C41.7047 35.9 41.938 36.1567 42.2647 36.32C42.5914 36.46 43.0114 36.53 43.5247 36.53H43.6297V38H38.9047L38.3447 34.99H38.0647C37.5747 35.6433 37.0964 36.2267 36.6297 36.74C36.163 37.23 35.6147 37.6267 34.9847 37.93C34.378 38.21 33.5847 38.35 32.6047 38.35ZM33.4097 36.18C34.3664 36.18 35.183 35.9817 35.8597 35.585C36.5597 35.1883 37.0964 34.6283 37.4697 33.905C37.8664 33.1583 38.0647 32.295 38.0647 31.315V28.48L35.8247 28.585C34.4947 28.6317 33.4447 28.83 32.6747 29.18C31.928 29.53 31.3914 30.02 31.0647 30.65C30.738 31.2567 30.5747 32.015 30.5747 32.925C30.5747 33.6483 30.6797 34.255 30.8897 34.745C31.0997 35.2117 31.4147 35.5733 31.8347 35.83C32.2547 36.0633 32.7797 36.18 33.4097 36.18ZM46.1314 38V36.53H46.5864C47.123 36.53 47.5897 36.4717 47.9864 36.355C48.383 36.2383 48.698 36.005 48.9314 35.655C49.1647 35.2817 49.2814 34.7333 49.2814 34.01V23.09C49.2814 22.39 49.1647 21.8767 48.9314 21.55C48.698 21.2 48.3714 20.9783 47.9514 20.885C47.5547 20.7683 47.0997 20.71 46.5864 20.71H46.4814V19.24H51.9764L52.4314 22.075H52.6064C53.073 21.1883 53.5747 20.5233 54.1114 20.08C54.648 19.6133 55.2314 19.2983 55.8614 19.135C56.4914 18.9717 57.168 18.89 57.8914 18.89C58.638 18.89 59.338 18.995 59.9914 19.205C60.668 19.415 61.263 19.7533 61.7764 20.22C62.2897 20.6633 62.6864 21.2817 62.9664 22.075H63.2464C63.713 21.1883 64.2264 20.5233 64.7864 20.08C65.3697 19.6133 65.988 19.2983 66.6414 19.135C67.318 18.9717 68.018 18.89 68.7414 18.89C70.538 18.89 71.938 19.4383 72.9414 20.535C73.9447 21.6083 74.4464 23.3467 74.4464 25.75V34.01C74.4464 34.7333 74.563 35.2817 74.7964 35.655C75.0297 36.005 75.3447 36.2383 75.7414 36.355C76.1614 36.4717 76.628 36.53 77.1414 36.53H77.2464V38H71.1564V25.925C71.1564 24.4083 70.8764 23.23 70.3164 22.39C69.7797 21.55 68.8347 21.13 67.4814 21.13C66.5247 21.13 65.7547 21.375 65.1714 21.865C64.6114 22.3317 64.203 22.9617 63.9464 23.755C63.713 24.5483 63.5964 25.4117 63.5964 26.345V34.01C63.5964 34.7333 63.713 35.2817 63.9464 35.655C64.1797 36.005 64.4947 36.2383 64.8914 36.355C65.3114 36.4717 65.778 36.53 66.2914 36.53H66.3964V38H60.3064V25.925C60.3064 24.4083 60.0264 23.23 59.4664 22.39C58.9297 21.55 57.9847 21.13 56.6314 21.13C55.628 21.13 54.823 21.3983 54.2164 21.935C53.633 22.4483 53.213 23.1367 52.9564 24C52.6997 24.8633 52.5714 25.7967 52.5714 26.8V34.185C52.5714 34.8617 52.6997 35.375 52.9564 35.725C53.2364 36.0517 53.5864 36.2733 54.0064 36.39C54.4497 36.4833 54.928 36.53 55.4414 36.53H55.5464V38H46.1314ZM79.3923 38V36.53H79.4973C80.034 36.53 80.5123 36.4717 80.9323 36.355C81.3756 36.2383 81.7256 36.005 81.9823 35.655C82.239 35.2817 82.3673 34.7333 82.3673 34.01V23.09C82.3673 22.39 82.2273 21.8767 81.9473 21.55C81.6906 21.2 81.3406 20.9783 80.8973 20.885C80.4773 20.7683 80.0106 20.71 79.4973 20.71H79.3923V19.24H84.7823L85.4473 22.705H85.6223C85.9256 22.005 86.2523 21.3633 86.6023 20.78C86.9523 20.1967 87.419 19.7417 88.0023 19.415C88.5856 19.065 89.3906 18.89 90.4173 18.89C91.7006 18.89 92.6456 19.1117 93.2523 19.555C93.8823 19.9983 94.1973 20.6283 94.1973 21.445C94.1973 22.1683 93.9406 22.7633 93.4273 23.23C92.9373 23.6967 92.109 23.93 90.9423 23.93C90.9423 23.2767 90.884 22.7517 90.7673 22.355C90.6506 21.9583 90.4523 21.6667 90.1723 21.48C89.9156 21.2933 89.554 21.2 89.0873 21.2C88.434 21.2 87.8856 21.4567 87.4423 21.97C86.999 22.4833 86.649 23.1367 86.3923 23.93C86.1356 24.7233 85.949 25.5517 85.8323 26.415C85.7156 27.255 85.6573 28.0133 85.6573 28.69V34.185C85.6573 34.8617 85.7856 35.375 86.0423 35.725C86.3223 36.0517 86.6723 36.2733 87.0923 36.39C87.5356 36.4833 88.014 36.53 88.5273 36.53H89.5073V38H79.3923ZM104.757 38.35C102.237 38.35 100.254 37.545 98.8069 35.935C97.3602 34.325 96.6369 31.875 96.6369 28.585C96.6369 25.3183 97.3252 22.8917 98.7019 21.305C100.102 19.695 102.155 18.89 104.862 18.89C107.382 18.89 109.365 19.695 110.812 21.305C112.259 22.8917 112.982 25.3183 112.982 28.585C112.982 31.875 112.282 34.325 110.882 35.935C109.505 37.545 107.464 38.35 104.757 38.35ZM104.827 36.53C105.994 36.53 106.927 36.2383 107.627 35.655C108.327 35.0483 108.829 34.15 109.132 32.96C109.435 31.77 109.587 30.3117 109.587 28.585C109.587 26.835 109.424 25.3883 109.097 24.245C108.794 23.0783 108.292 22.2033 107.592 21.62C106.892 21.0367 105.959 20.745 104.792 20.745C103.625 20.745 102.692 21.0367 101.992 21.62C101.292 22.2033 100.79 23.0783 100.487 24.245C100.184 25.3883 100.032 26.835 100.032 28.585C100.032 30.3117 100.184 31.77 100.487 32.96C100.814 34.15 101.327 35.0483 102.027 35.655C102.727 36.2383 103.66 36.53 104.827 36.53ZM115.542 38V36.53H115.822C116.359 36.53 116.837 36.4717 117.257 36.355C117.7 36.2383 118.05 36.005 118.307 35.655C118.564 35.2817 118.692 34.7333 118.692 34.01V15.25C118.692 14.55 118.552 14.0367 118.272 13.71C118.015 13.36 117.665 13.1383 117.222 13.045C116.802 12.9283 116.335 12.87 115.822 12.87H115.542V11.4H121.982V24.91C121.982 25.2133 121.97 25.61 121.947 26.1C121.947 26.59 121.935 27.08 121.912 27.57C121.889 28.06 121.865 28.48 121.842 28.83C121.842 29.1567 121.842 29.32 121.842 29.32L126.217 24.525C126.73 23.965 127.115 23.4983 127.372 23.125C127.652 22.7283 127.85 22.4017 127.967 22.145C128.084 21.865 128.142 21.62 128.142 21.41C128.142 21.1067 128.002 20.92 127.722 20.85C127.442 20.7567 127.01 20.71 126.427 20.71V19.24H134.162V20.71C133.765 20.71 133.369 20.78 132.972 20.92C132.575 21.06 132.179 21.27 131.782 21.55C131.385 21.83 130.977 22.18 130.557 22.6C130.137 22.9967 129.694 23.4517 129.227 23.965L126.777 26.73L131.432 33.66C131.852 34.2667 132.249 34.7917 132.622 35.235C133.019 35.655 133.439 35.9817 133.882 36.215C134.325 36.425 134.804 36.53 135.317 36.53H135.422V38H134.932C133.929 38 133.089 37.965 132.412 37.895C131.735 37.825 131.164 37.685 130.697 37.475C130.254 37.2417 129.822 36.9033 129.402 36.46C129.005 35.9933 128.562 35.375 128.072 34.605L124.572 29.11L121.982 31.035V34.185C121.982 34.8617 122.11 35.375 122.367 35.725C122.647 36.0517 122.997 36.2733 123.417 36.39C123.86 36.4833 124.339 36.53 124.852 36.53H124.957V38H115.542Z" fill="#3B5C4D"/>
<path d="M136.436 41.92C137.206 41.6633 137.836 41.3717 138.326 41.045C138.816 40.7417 139.177 40.3917 139.411 39.995C139.644 39.6217 139.761 39.2133 139.761 38.77C139.761 38.49 139.667 38.2567 139.481 38.07C139.317 37.9067 139.107 37.7667 138.851 37.65C138.617 37.51 138.372 37.3583 138.116 37.195C137.859 37.0317 137.637 36.8217 137.451 36.565C137.287 36.3083 137.206 35.97 137.206 35.55C137.206 34.8733 137.416 34.36 137.836 34.01C138.279 33.66 138.827 33.485 139.481 33.485C140.204 33.485 140.834 33.7533 141.371 34.29C141.907 34.8033 142.176 35.55 142.176 36.53C142.176 38.0233 141.732 39.3883 140.846 40.625C139.982 41.8617 138.512 42.7833 136.436 43.39V41.92Z" fill="#333333"/>
</svg>
