<svg width="85" height="48" viewBox="0 0 85 48" fill="none" xmlns="http://www.w3.org/2000/svg">
<path d="M8.61353 45.4669C8.57864 45.9129 8.43134 46.2912 8.17165 46.6019C7.91253 46.9053 7.54947 47.127 7.08246 47.267C6.61545 47.407 6.0566 47.4515 5.40592 47.4006C4.76256 47.3503 4.22361 47.2346 3.78908 47.0535C3.34781 46.8645 3.02221 46.6073 2.81228 46.2819C2.59505 45.956 2.50502 45.5554 2.5422 45.0802C2.58053 44.5903 2.71069 44.196 2.93268 43.897C3.15525 43.5908 3.44771 43.3783 3.81008 43.2595L3.81351 43.2157C3.6746 43.2048 3.53907 43.1979 3.4069 43.1949C3.2753 43.1846 3.15072 43.1785 3.03318 43.1767C2.90889 43.167 2.79557 43.1581 2.69322 43.1501L1.3882 43.048C1.1177 43.0268 0.922812 43.0263 0.803548 43.0464C0.676973 43.0659 0.594773 43.1293 0.556949 43.2367C0.519697 43.3368 0.492491 43.4965 0.47533 43.7158L0.453879 43.99L0.234549 43.9728L0.337513 42.6568L7.64119 43.2283C7.89708 43.2483 8.08465 43.2483 8.20392 43.2282C8.31587 43.2075 8.39104 43.1398 8.42944 43.0251C8.46784 42.9105 8.49762 42.7179 8.51878 42.4474L8.53251 42.2719L8.75184 42.289L8.65145 43.5721L7.43074 43.5208L7.42902 43.5427C7.79661 43.7333 8.09719 43.9811 8.33076 44.2863C8.5576 44.5836 8.65186 44.9771 8.61353 45.4669ZM8.34519 45.5122C8.38148 44.8603 8.167 44.3581 7.70176 44.0054C7.23652 43.6527 6.58352 43.4434 5.74276 43.3776C5.12863 43.3296 4.61229 43.348 4.19372 43.433C3.77515 43.5179 3.45265 43.6913 3.2262 43.9531C2.99302 44.207 2.85726 44.5789 2.81894 45.0687C2.78519 45.5001 2.8674 45.8596 3.06556 46.1473C3.25699 46.427 3.5562 46.6454 3.9632 46.8023C4.37078 46.9519 4.87066 47.0498 5.46285 47.0961C6.04773 47.1419 6.55454 47.1043 6.98327 46.9834C7.4047 46.8619 7.73201 46.6742 7.96519 46.4203C8.19895 46.159 8.32561 45.8563 8.34519 45.5122ZM9.36081 40.0184C9.29648 40.2971 9.18077 40.5376 9.01366 40.7398C8.8394 40.9404 8.61156 41.0798 8.33013 41.1578C8.04871 41.2358 7.71864 41.2311 7.33993 41.1437C6.77544 41.0134 6.40719 40.7177 6.23517 40.2565C6.06481 39.7882 6.06513 39.1184 6.23612 38.2472L6.40932 37.3502L5.71264 37.1894C5.40539 37.1185 5.13001 37.0888 4.88651 37.1003C4.63587 37.1102 4.41957 37.1995 4.23762 37.3682C4.05568 37.5369 3.9177 37.8249 3.82368 38.2322C3.74286 38.5824 3.73377 38.8663 3.79642 39.0839C3.85192 39.2999 3.97146 39.4668 4.15504 39.5844C4.33147 39.7004 4.55545 39.7897 4.82698 39.8524C4.81048 39.9239 4.75799 39.972 4.66949 39.9967C4.58265 40.0143 4.45348 40.0033 4.28199 39.9637C4.13193 39.929 3.98463 39.8499 3.84008 39.7262C3.68838 39.6009 3.58093 39.4143 3.51774 39.1664C3.44905 38.9097 3.46171 38.5777 3.55573 38.1704C3.70087 37.5416 3.95594 37.1376 4.32092 36.9584C4.68041 36.7705 5.11382 36.7351 5.62114 36.8522L8.57935 37.535C8.84373 37.596 9.04985 37.6323 9.19771 37.6439C9.34007 37.6466 9.44616 37.6109 9.51597 37.5367C9.58578 37.4625 9.64295 37.329 9.68748 37.136L9.7048 37.061L9.91917 37.1105L9.70639 38.0323L8.57686 37.8393L8.57191 37.8607C8.70382 37.9739 8.84727 38.135 9.00226 38.3439C9.1589 38.5456 9.27981 38.788 9.36499 39.0711C9.44303 39.3525 9.44163 39.6683 9.36081 40.0184ZM9.10275 39.9137C9.18357 39.5636 9.16601 39.2321 9.05005 38.9194C8.93574 38.5994 8.76893 38.3276 8.54964 38.1039C8.33034 37.8802 8.10279 37.7411 7.86699 37.6867L6.65584 37.4071L6.47522 38.3363C6.36085 38.8969 6.32812 39.3485 6.37702 39.6909C6.42592 40.0333 6.54188 40.2972 6.7249 40.4824C6.90243 40.6589 7.1341 40.7801 7.41992 40.8461C7.66287 40.9022 7.90059 40.9156 8.1331 40.8865C8.36011 40.8486 8.56294 40.7524 8.74159 40.598C8.91309 40.4419 9.03348 40.2138 9.10275 39.9137ZM10.2144 36.1913L10.0137 36.1012L10.1172 35.8704C10.2283 35.6228 10.2944 35.4395 10.3157 35.3204C10.3369 35.2014 10.3034 35.1059 10.215 35.0342C10.12 34.9594 9.95535 34.8695 9.72117 34.7644L6.22846 33.1977C5.99427 33.0927 5.82099 33.031 5.70862 33.0128C5.58956 32.9915 5.49414 33.025 5.42235 33.1134C5.35357 33.1951 5.27416 33.3363 5.18412 33.537L5.10758 33.7076L4.90685 33.6176L5.39307 32.5336L6.33998 32.9222L6.36249 32.872C6.17401 32.683 6.04253 32.4834 5.96805 32.2731C5.88688 32.0599 5.85301 31.8398 5.86645 31.6127C5.88289 31.379 5.94363 31.145 6.04868 30.9108C6.18674 30.603 6.34463 30.3765 6.52234 30.2311C6.70005 30.0858 6.88836 29.9975 7.08728 29.9662C7.28919 29.9281 7.49098 29.9262 7.69265 29.9604L7.70615 29.9303C7.55851 29.7757 7.43776 29.5969 7.34389 29.3941C7.25003 29.1912 7.20278 28.9651 7.20214 28.7156C7.20451 28.4595 7.27173 28.1842 7.40379 27.8898C7.64389 27.3545 7.97671 27.0337 8.40224 26.9272C8.82108 26.8176 9.3249 26.895 9.91371 27.1591L12.5935 28.3611C12.8276 28.4662 13.0043 28.5293 13.1233 28.5506C13.2357 28.5688 13.3293 28.5304 13.4041 28.4354C13.4819 28.3336 13.5748 28.1623 13.6828 27.9215L13.7278 27.8211L13.9286 27.9111L13.4108 29.0653L9.74751 27.4221C9.25237 27.2 8.83081 27.1274 8.48282 27.2044C8.12814 27.2784 7.84876 27.5429 7.64466 27.9979C7.48559 28.3525 7.43198 28.6781 7.48383 28.9746C7.53198 29.2614 7.66253 29.5169 7.87546 29.741C8.08469 29.9554 8.34655 30.1332 8.66103 30.2742L11.2203 31.4223C11.4545 31.5273 11.6312 31.5905 11.7502 31.6117C11.8626 31.63 11.9562 31.5916 12.0309 31.4965C12.1057 31.4015 12.1987 31.2302 12.3097 30.9826L12.3772 30.832L12.578 30.9221L12.0377 32.1265L8.37439 30.4832C7.88594 30.2641 7.46773 30.1931 7.11974 30.2701C6.76806 30.3374 6.48567 30.6085 6.27258 31.0836C6.12251 31.4181 6.08494 31.7348 6.15986 32.0337C6.22809 32.3295 6.3772 32.5973 6.6072 32.8371C6.83351 33.0672 7.1106 33.2558 7.43846 33.4029L9.84722 34.4834C10.0814 34.5884 10.258 34.6516 10.3771 34.6728C10.4895 34.6911 10.583 34.6527 10.6578 34.5577C10.7356 34.4559 10.8285 34.2846 10.9366 34.0437L11.0266 33.843L11.2274 33.933L10.2144 36.1913ZM14.3483 27.2118L14.167 27.0872L14.3041 26.8878C14.4288 26.7065 14.5081 26.5652 14.542 26.464C14.5802 26.3567 14.5592 26.2578 14.4791 26.1672C14.393 26.0724 14.2382 25.9481 14.0146 25.7944L10.8963 23.6508C10.6848 23.5054 10.5254 23.4137 10.4181 23.3755C10.3048 23.3332 10.2028 23.3521 10.1122 23.4322C10.0215 23.5123 9.89937 23.6641 9.74567 23.8877L9.63351 24.0509L9.45221 23.9263L10.1937 22.8475L11.2277 23.5182L11.2402 23.5001C11.1147 23.3071 11.0058 23.1032 10.9132 22.8883C10.8188 22.6632 10.7733 22.4317 10.7767 22.1937C10.78 21.9558 10.8607 21.722 11.0185 21.4924C11.1764 21.2627 11.3635 21.1199 11.5799 21.064C11.7903 21.004 11.9831 21.0342 12.1584 21.1546C12.2369 21.2086 12.296 21.2715 12.3357 21.3433C12.3754 21.415 12.3723 21.4842 12.3266 21.5506C12.1514 21.4302 11.9988 21.3609 11.8689 21.3427C11.7371 21.3144 11.6188 21.331 11.5142 21.3926C11.4096 21.4542 11.3095 21.5545 11.214 21.6935C11.0935 21.8687 11.0388 22.0713 11.0497 22.3014C11.0607 22.5314 11.1285 22.7693 11.2532 23.0152C11.3778 23.261 11.5493 23.5035 11.7676 23.7426C11.9799 23.9775 12.225 24.1905 12.503 24.3816L14.189 25.5406C14.4126 25.6943 14.5841 25.7944 14.7035 25.8408C14.8209 25.8771 14.9208 25.8612 15.0032 25.7932C15.0855 25.7252 15.189 25.6006 15.3136 25.4193L15.5317 25.102L15.713 25.2266L14.3483 27.2118ZM18.5902 21.883C18.136 22.3918 17.5911 22.6278 16.9554 22.5912C16.3245 22.549 15.6234 22.1837 14.8521 21.4951C14.0862 20.8114 13.6469 20.1638 13.5343 19.5521C13.4162 18.9355 13.6038 18.351 14.097 17.7984C14.561 17.2787 15.0956 17.0432 15.7008 17.092C16.3055 17.1304 17.0017 17.5012 17.7895 18.2045C18.5609 18.893 19.008 19.5429 19.131 20.1539C19.2539 20.765 19.0737 21.3414 18.5902 21.883ZM18.3851 21.6999C18.6976 21.3497 18.8619 20.995 18.8778 20.6357C18.8883 20.2716 18.7795 19.909 18.5513 19.548C18.3224 19.1766 18.0002 18.8054 17.5844 18.4342C17.1139 18.0142 16.6842 17.7192 16.2955 17.5491C15.9067 17.379 15.5481 17.3292 15.2197 17.3997C14.8913 17.4703 14.5854 17.6642 14.3022 17.9816C13.9945 18.3262 13.8221 18.6736 13.7848 19.0237C13.7475 19.3738 13.8381 19.7348 14.0566 20.1068C14.2696 20.4738 14.6031 20.86 15.0572 21.2653C15.4894 21.6511 15.9053 21.934 16.3051 22.1139C16.6993 22.2889 17.0713 22.3457 17.421 22.2843C17.7756 22.2174 18.0969 22.0226 18.3851 21.6999ZM20.623 19.4879L20.4816 19.3194L20.6585 19.1709C20.8663 18.9964 21.0058 18.8602 21.0768 18.7623C21.1478 18.6644 21.1592 18.5639 21.1109 18.4608C21.058 18.3521 20.949 18.1994 20.784 18.0028L16.7671 13.2172C16.5927 13.0093 16.4565 12.8699 16.3586 12.7989C16.256 12.7223 16.1532 12.7081 16.05 12.7563C15.9525 12.7999 15.8195 12.8923 15.651 13.0338L15.3898 13.253L15.2484 13.0845L16.31 12.1934L19.0398 15.4457C19.1293 15.5524 19.2213 15.6619 19.3156 15.7743C19.4051 15.881 19.4943 15.9929 19.5829 16.1099C19.6725 16.2167 19.764 16.3314 19.8574 16.454C19.9517 16.5664 20.0483 16.6815 20.1473 16.7995L20.2938 14.4075C20.325 13.9313 20.343 13.5763 20.3478 13.3425C20.3526 13.1087 20.3459 12.9468 20.3277 12.8567C20.3096 12.7666 20.284 12.7019 20.251 12.6626C20.1897 12.5896 20.1043 12.5847 19.9946 12.648C19.8906 12.7066 19.7403 12.8184 19.5437 12.9834L19.4023 12.8149L20.8262 11.6198L20.9676 11.7883C20.8497 11.8873 20.7641 11.9735 20.7108 12.0469C20.6631 12.1156 20.6353 12.1965 20.6271 12.2895C20.6199 12.3721 20.6175 12.489 20.6199 12.6402C20.6232 12.781 20.6192 12.9758 20.6079 13.2247L20.5142 15.0123L23.0044 15.8232C23.3183 15.9235 23.5782 15.9878 23.7839 16.0162C23.9896 16.0446 24.1619 16.0388 24.3007 15.9989C24.4452 15.9543 24.5764 15.8824 24.6943 15.7834L24.728 15.7551L24.8695 15.9237L24.7515 16.0227C24.6167 16.1358 24.4945 16.224 24.3848 16.2873C24.2808 16.3459 24.1636 16.3773 24.0331 16.3815C23.9082 16.381 23.749 16.3567 23.5554 16.3086C23.3674 16.2557 23.1164 16.1791 22.8025 16.0788L20.4956 15.3152L20.4046 17.0718L21.0199 17.8048C21.1849 18.0014 21.3163 18.1352 21.4142 18.2062C21.5074 18.2716 21.6084 18.2778 21.7171 18.2249C21.8315 18.1672 21.9897 18.0535 22.192 17.8838L22.2762 17.8131L22.4176 17.9816L20.623 19.4879ZM29.7757 13.099C29.4269 13.2864 29.0601 13.3629 28.6752 13.3283C28.2868 13.2872 27.8995 13.1166 27.5134 12.8163C27.1336 12.5125 26.7841 12.0634 26.4647 11.4692C26.0967 10.7844 25.8876 10.2017 25.8373 9.72085C25.7935 9.23656 25.8736 8.83556 26.0775 8.51785C26.2779 8.19368 26.5622 7.93266 26.9304 7.73478C27.2275 7.5751 27.5105 7.48965 27.7792 7.47844C28.0444 7.46078 28.2753 7.50318 28.4719 7.60566C28.6715 7.6982 28.8217 7.83814 28.9223 8.02546C28.9501 8.07714 28.9647 8.12757 28.9662 8.17674C28.9676 8.22591 28.9542 8.2706 28.9258 8.31081C28.9039 8.34754 28.8689 8.38303 28.8207 8.41726C28.7235 8.23639 28.5863 8.08951 28.4091 7.97662C28.2284 7.85727 28.0198 7.79452 27.7834 7.78837C27.5534 7.77875 27.2996 7.84857 27.0218 7.99785C26.7053 8.16795 26.466 8.39648 26.3038 8.68343C26.1481 8.9669 26.0997 9.32596 26.1584 9.7606C26.2137 10.1888 26.4045 10.7065 26.7308 11.3137C27.0085 11.8304 27.3189 12.2298 27.6619 12.5117C28.0048 12.7936 28.3494 12.9622 28.6955 13.0176C29.0382 13.0666 29.3549 13.0129 29.6456 12.8567C29.9134 12.7045 30.1152 12.5377 30.2509 12.3566C30.3866 12.1754 30.4745 11.9825 30.5144 11.7779C30.5508 11.5668 30.5577 11.355 30.535 11.1424C30.5881 11.1638 30.6301 11.1954 30.6608 11.2371C30.6946 11.269 30.7271 11.3139 30.7583 11.3721C30.8139 11.4754 30.8234 11.6326 30.787 11.8437C30.757 12.0513 30.6617 12.269 30.5011 12.4968C30.3405 12.7247 30.0987 12.9254 29.7757 13.099ZM31.7192 11.9582L31.6438 11.7515L31.9022 11.6573C32.1571 11.5643 32.3346 11.484 32.4348 11.4162C32.535 11.3484 32.58 11.2579 32.5699 11.1445C32.5573 11.0242 32.507 10.8435 32.419 10.6024L30.2784 4.7325C30.1854 4.47759 30.1051 4.30004 30.0373 4.19986C29.9671 4.09279 29.8752 4.04432 29.7618 4.05444C29.6553 4.06206 29.4987 4.10356 29.292 4.17893L29.0337 4.27315L28.9583 4.06647L30.1984 3.61422L31.2461 6.48714C31.2662 6.54225 31.2841 6.60207 31.2999 6.66659C31.3225 6.7286 31.3404 6.78841 31.3536 6.84604C31.3712 6.89427 31.3841 6.94031 31.3923 6.98415L31.4129 6.97662C31.4096 6.77488 31.4433 6.56747 31.5139 6.35438C31.5888 6.13189 31.7233 5.92282 31.9174 5.72717C32.1183 5.529 32.3979 5.36459 32.7562 5.23394C33.2935 5.03796 33.7575 5.03659 34.148 5.22983C34.5429 5.41367 34.8597 5.83283 35.0983 6.48734L36.1084 9.25692C36.1963 9.49805 36.2742 9.66871 36.3419 9.76889C36.4072 9.86218 36.4999 9.90251 36.6202 9.88986C36.7474 9.87471 36.935 9.82191 37.183 9.73146L37.3587 9.66739L37.434 9.87407L36.1733 10.3339L34.8165 6.61353C34.613 6.05548 34.3533 5.68576 34.0374 5.50435C33.7283 5.32044 33.3326 5.31642 32.8504 5.49229C32.5059 5.61792 32.2279 5.79736 32.0163 6.03063C31.8023 6.257 31.6732 6.53436 31.629 6.8627C31.5848 7.19104 31.6431 7.57568 31.8039 8.01661L32.7084 10.4968C32.7963 10.738 32.8742 10.9086 32.9419 11.0088C33.0072 11.1021 33.1 11.1424 33.2202 11.1298C33.3474 11.1146 33.535 11.0618 33.783 10.9714L33.9794 10.8998L34.0547 11.1064L31.7192 11.9582ZM39.8392 9.46715C39.5586 9.52268 39.2918 9.51567 39.0389 9.44614C38.7845 9.3694 38.564 9.21867 38.3775 8.99394C38.191 8.76921 38.06 8.46621 37.9845 8.08494C37.872 7.51663 37.9909 7.05953 38.341 6.71362C38.6984 6.3663 39.3095 6.0921 40.1742 5.89104L41.0634 5.68141L40.9246 4.98001C40.8634 4.67068 40.7776 4.40732 40.6673 4.18993C40.5556 3.96535 40.3855 3.80465 40.157 3.70784C39.9285 3.61103 39.6093 3.6032 39.1992 3.68436C38.8467 3.75412 38.584 3.86218 38.4112 4.00853C38.2369 4.14769 38.1337 4.3251 38.1016 4.54076C38.0681 4.74923 38.0784 4.99015 38.1325 5.26351C38.0606 5.27775 37.9952 5.24958 37.9364 5.17899C37.8848 5.10698 37.8419 4.98464 37.8077 4.81199C37.7778 4.66092 37.7896 4.49412 37.8432 4.31157C37.8953 4.12184 38.0215 3.94735 38.2218 3.78811C38.4278 3.62025 38.7358 3.49575 39.1458 3.41459C39.7789 3.28929 40.2519 3.35639 40.5649 3.61589C40.8837 3.86677 41.0936 4.24759 41.1947 4.75835L41.7842 7.73658C41.8369 8.00275 41.8882 8.20563 41.9383 8.34524C41.9941 8.47622 42.0702 8.55835 42.1665 8.59162C42.2628 8.62489 42.408 8.62231 42.6023 8.58386L42.6778 8.56891L42.7205 8.78473L41.7925 8.9684L41.5057 7.85899L41.4841 7.86326C41.4348 8.02999 41.3467 8.22684 41.2197 8.45382C41.0999 8.67938 40.9283 8.88901 40.705 9.08272C40.4803 9.26924 40.1917 9.39738 39.8392 9.46715ZM39.8289 9.18884C40.1814 9.11907 40.4766 8.96721 40.7143 8.73326C40.9593 8.49789 41.1389 8.23434 41.2531 7.94262C41.3673 7.65089 41.4009 7.38633 41.3539 7.14894L41.1126 5.92959L40.191 6.14564C39.6327 6.27108 39.2074 6.42628 38.9151 6.61122C38.6228 6.79616 38.4296 7.01007 38.3357 7.25293C38.2475 7.48718 38.2318 7.74818 38.2888 8.03593C38.3372 8.28052 38.4223 8.50289 38.5442 8.70304C38.6718 8.89458 38.8426 9.04017 39.0567 9.13984C39.2694 9.23231 39.5268 9.24864 39.8289 9.18884ZM43.6004 8.64737L43.5807 8.42825L43.9094 8.3988C44.1797 8.37458 44.3719 8.34263 44.4861 8.30294C44.6004 8.26326 44.6672 8.18732 44.6866 8.07514C44.7054 7.95566 44.7033 7.7681 44.6804 7.51245L44.3427 3.74355C44.3184 3.4733 44.2865 3.28106 44.2468 3.16681C44.2065 3.04526 44.1302 2.97478 44.018 2.95538C43.9131 2.93533 43.7511 2.93512 43.532 2.95476L43.3348 2.97243L43.3152 2.7533L44.5532 2.64237L44.9871 7.48497C45.0101 7.74061 45.0414 7.92555 45.081 8.0398C45.1201 8.14674 45.1993 8.20959 45.3188 8.22833C45.4456 8.24642 45.6405 8.24369 45.9034 8.22012L46.2321 8.19067L46.2517 8.40979L43.6004 8.64737ZM44.2253 1.32438C44.1522 1.33092 44.0875 1.30727 44.0312 1.25342C43.9821 1.19891 43.9497 1.08401 43.934 0.908713C43.919 0.740719 43.9307 0.625542 43.9693 0.563183C44.0146 0.492865 44.0737 0.454433 44.1467 0.447888C44.2271 0.440689 44.2921 0.467994 44.3418 0.529804C44.3909 0.584309 44.4229 0.695559 44.438 0.863553C44.4537 1.03885 44.4423 1.15768 44.4037 1.22004C44.3651 1.2824 44.3056 1.31718 44.2253 1.32438ZM46.8694 8.40723L46.8712 8.18723L47.1132 8.18925C47.3332 8.19107 47.4946 8.17775 47.5975 8.14927C47.7078 8.12085 47.7781 8.0481 47.8084 7.93102C47.8387 7.8066 47.855 7.60873 47.8573 7.3374L47.8888 3.55353C47.8909 3.29688 47.8778 3.11343 47.8493 3.00319C47.821 2.88561 47.7483 2.81167 47.6312 2.78137C47.5141 2.75106 47.3199 2.73478 47.0486 2.73252L46.8506 2.73087L46.8524 2.51088L48.1614 2.52176L48.1841 3.754L48.2061 3.75418C48.2959 3.54225 48.4039 3.33781 48.5302 3.14085C48.6639 2.93662 48.8303 2.76933 49.0294 2.63898C49.2285 2.50864 49.4674 2.44462 49.746 2.44694C50.0247 2.44925 50.2477 2.52444 50.4152 2.67251C50.5827 2.81324 50.6655 2.98993 50.6638 3.20259C50.663 3.29792 50.644 3.3821 50.6067 3.45513C50.5694 3.52815 50.5104 3.56433 50.4298 3.56366C50.4315 3.351 50.4036 3.18576 50.3459 3.06794C50.2956 2.94286 50.2157 2.85419 50.1061 2.80194C49.9965 2.7497 49.8574 2.72287 49.6887 2.72147C49.4761 2.7197 49.2775 2.78772 49.093 2.92552C48.9085 3.06333 48.7493 3.25268 48.6153 3.49357C48.4813 3.73447 48.3763 4.01227 48.3003 4.32698C48.2245 4.63436 48.1851 4.95671 48.1823 5.29403L48.1653 7.33996C48.163 7.61129 48.1761 7.8094 48.2044 7.93431C48.24 8.05194 48.3091 8.12585 48.4115 8.15604C48.5139 8.18622 48.6751 8.20223 48.8951 8.20406L49.2801 8.20726L49.2783 8.42725L46.8694 8.40723ZM56.972 9.54944C56.5633 9.46184 56.2227 9.28384 55.9503 9.01544C55.685 8.74858 55.5177 8.409 55.4486 7.99669L55.4164 7.98977L55.1559 9.04767L53.8437 8.76643L53.8898 8.55131L54.1156 8.59973C54.3809 8.65659 54.574 8.68298 54.6949 8.67888C54.8158 8.67479 54.9021 8.62204 54.9538 8.52063C55.0071 8.41205 55.0606 8.23228 55.1144 7.98131L56.4238 1.87206C56.4807 1.60675 56.5071 1.41366 56.503 1.29278C56.5004 1.16474 56.4484 1.07485 56.347 1.02311C56.2528 0.972914 56.0981 0.924763 55.883 0.878657L55.5496 0.807192L55.5957 0.592077L56.9509 0.882545L56.4898 3.03369C56.4606 3.16993 56.4225 3.3305 56.3754 3.51539C56.3369 3.69465 56.2934 3.88032 56.2447 4.07238C56.1976 4.25728 56.1492 4.43065 56.0995 4.5925L56.1318 4.59942C56.3705 4.18558 56.6701 3.88981 57.0307 3.7121C57.3984 3.53592 57.8297 3.50086 58.3245 3.6069C59.0128 3.75444 59.4676 4.09942 59.6889 4.64183C59.9101 5.18424 59.9093 5.9753 59.6865 7.01502C59.5451 7.67471 59.3407 8.20839 59.0733 8.61608C58.8075 9.01659 58.493 9.29418 58.1298 9.44885C57.7739 9.60505 57.3879 9.63858 56.972 9.54944ZM57.0727 9.28977C57.4384 9.36815 57.7734 9.32744 58.0776 9.16765C58.3818 9.00787 58.6459 8.73822 58.8697 8.3587C59.0936 7.97918 59.2677 7.49902 59.3922 6.91821C59.5259 6.29438 59.5777 5.77298 59.5475 5.35401C59.5173 4.93504 59.3931 4.60468 59.1749 4.36292C58.9639 4.1227 58.6469 3.95725 58.2238 3.86657C57.5928 3.73133 57.0752 3.87165 56.6711 4.28752C56.2741 4.70493 55.9865 5.32952 55.8083 6.1613C55.6868 6.72777 55.6397 7.22766 55.6668 7.66096C55.694 8.09427 55.8163 8.4505 56.034 8.72965C56.2604 9.00316 56.6066 9.18987 57.0727 9.28977ZM60.2631 10.2146L60.337 10.0074L60.5649 10.0887C60.7722 10.1627 60.929 10.203 61.0356 10.2099C61.149 10.2193 61.2393 10.1736 61.3064 10.0729C61.3759 9.96537 61.4562 9.78381 61.5474 9.52826L62.8189 5.96427C62.9051 5.72253 62.9529 5.54492 62.9622 5.43146C62.974 5.3111 62.9296 5.21739 62.8289 5.15033C62.7283 5.08328 62.5502 5.00417 62.2946 4.91299L62.1081 4.84646L62.1821 4.63926L63.415 5.0791L63.0321 6.25055L63.0528 6.25795C63.2071 6.08721 63.3763 5.92955 63.5602 5.78495C63.7535 5.63591 63.9656 5.53249 64.1965 5.4747C64.4273 5.4169 64.674 5.43482 64.9364 5.52846C65.1989 5.6221 65.3849 5.76632 65.4945 5.96113C65.6065 6.14904 65.6268 6.34315 65.5554 6.54345C65.5233 6.63324 65.4777 6.70651 65.4186 6.76326C65.3594 6.82001 65.2918 6.83483 65.2158 6.80772C65.2873 6.60742 65.3151 6.44216 65.2993 6.31193C65.2928 6.17727 65.2464 6.06728 65.16 5.98197C65.0737 5.89666 64.9511 5.82566 64.7922 5.76899C64.5919 5.69753 64.382 5.69662 64.1625 5.76625C63.943 5.83588 63.7305 5.96248 63.5248 6.14605C63.3192 6.32963 63.1289 6.5576 62.9538 6.82995C62.7813 7.09541 62.6383 7.38699 62.525 7.70471L61.8375 9.63175C61.7463 9.88731 61.6936 10.0787 61.6793 10.206C61.6744 10.3288 61.7154 10.4213 61.8023 10.4834C61.8891 10.5456 62.0361 10.6136 62.2433 10.6875L62.6059 10.8169L62.532 11.0241L60.2631 10.2146ZM65.6327 12.5367C65.3776 12.4074 65.172 12.2373 65.0158 12.0265C64.8629 11.8092 64.7823 11.5546 64.7741 11.2626C64.766 10.9707 64.8498 10.6514 65.0255 10.3048C65.2876 9.78809 65.6631 9.50161 66.1521 9.44536C66.6476 9.39242 67.2977 9.55353 68.1023 9.9287L68.9315 10.3122L69.2549 9.67451C69.3975 9.39327 69.4925 9.13308 69.5398 8.89394C69.5903 8.64825 69.5556 8.41684 69.4355 8.19971C69.3154 7.98257 69.0689 7.77947 68.6961 7.59042C68.3756 7.4279 68.1022 7.35091 67.8759 7.35947C67.6528 7.36148 67.4622 7.43747 67.3039 7.58743C67.149 7.73086 67.0085 7.92684 66.8824 8.17537C66.817 8.1422 66.7829 8.0797 66.7802 7.98785C66.784 7.89932 66.8257 7.77658 66.9053 7.61961C66.9749 7.48226 67.0871 7.35827 67.2419 7.24764C67.4 7.13047 67.6069 7.07097 67.8627 7.06915C68.1284 7.0641 68.4477 7.1561 68.8205 7.34515C69.396 7.63703 69.727 7.98163 69.8132 8.37895C69.9094 8.77305 69.8397 9.20228 69.6042 9.66665L68.2311 12.3744C68.1084 12.6164 68.0237 12.8078 67.977 12.9485C67.9401 13.086 67.9493 13.1976 68.0046 13.2832C68.0598 13.3688 68.1758 13.4563 68.3524 13.5459L68.421 13.5807L68.3215 13.7769L67.4778 13.3491L67.9364 12.2989L67.9167 12.289C67.7751 12.3898 67.5844 12.4904 67.3444 12.5907C67.1109 12.6943 66.8466 12.7535 66.5513 12.7682C66.2594 12.7764 65.9532 12.6993 65.6327 12.5367ZM65.7963 12.3114C66.1168 12.4739 66.4428 12.5364 66.7742 12.4989C67.1122 12.4648 67.4162 12.3681 67.686 12.2089C67.9558 12.0498 68.1455 11.8623 68.2549 11.6464L68.8171 10.5378L67.9585 10.1394C67.4417 9.89379 67.0112 9.7536 66.667 9.71885C66.3229 9.6841 66.0389 9.73332 65.8151 9.86652C65.6012 9.99649 65.4279 10.1923 65.2953 10.4539C65.1825 10.6763 65.1123 10.9038 65.0848 11.1365C65.0671 11.366 65.1117 11.586 65.2188 11.7965C65.3291 12.0004 65.5216 12.1721 65.7963 12.3114ZM69.1525 14.2713L69.2814 14.093L69.4865 14.2412C69.7064 14.4001 69.8725 14.502 69.9848 14.5469C70.0971 14.5919 70.1973 14.5784 70.2855 14.5064C70.378 14.4284 70.4994 14.2855 70.6497 14.0774L72.8916 10.9746C73.0419 10.7665 73.1374 10.6093 73.178 10.503C73.223 10.3907 73.2094 10.2905 73.1374 10.2023C73.0714 10.1184 72.9492 10.012 72.7709 9.88314L72.5212 9.70276L72.6501 9.52444L73.7111 10.291L73.1774 11.0861L73.2131 11.1119C73.4866 10.9838 73.7376 10.9118 73.9661 10.896C74.1947 10.8802 74.4123 10.9108 74.6191 10.9878C74.8361 11.0631 75.0545 11.1802 75.2744 11.3391C75.7856 11.7085 76.0584 12.1136 76.0926 12.5546C76.1371 12.9938 75.9575 13.4928 75.5538 14.0516L73.8596 16.3966C73.7093 16.6046 73.6116 16.7648 73.5667 16.8771C73.526 16.9834 73.5447 17.0828 73.6226 17.1753C73.7065 17.2721 73.8554 17.3978 74.0694 17.5524L74.2032 17.649L74.0743 17.8274L73.0044 17.0543L75.3557 13.7999C75.6435 13.4016 75.7854 13.0111 75.7815 12.6283C75.7879 12.2439 75.5652 11.8885 75.1134 11.5621C74.727 11.2829 74.3659 11.1441 74.03 11.1457C73.7001 11.1516 73.4003 11.2471 73.1308 11.4324C72.8672 11.6219 72.6387 11.8504 72.4455 12.1179L70.8994 14.2578C70.7491 14.4658 70.6514 14.626 70.6065 14.7383C70.5659 14.8446 70.5845 14.9441 70.6624 15.0365C70.7463 15.1333 70.8952 15.259 71.1092 15.4136L71.2519 15.5167L71.123 15.695L69.1525 14.2713ZM76.2815 20.132C75.9657 19.8151 75.7745 19.457 75.7078 19.0576C75.6462 18.6634 75.7144 18.2435 75.9122 17.7979C76.11 17.3523 76.4401 16.8991 76.9024 16.4384C77.3595 15.9829 77.7982 15.6492 78.2186 15.4373C78.6494 15.2254 79.0566 15.1457 79.4402 15.1983C79.829 15.2456 80.1917 15.4381 80.5281 15.7757C80.875 16.1238 81.0896 16.4793 81.1719 16.8425C81.2594 17.2108 81.2303 17.5711 81.0845 17.9235L81.1155 17.9546C81.2142 17.8563 81.3077 17.7579 81.3961 17.6596C81.4896 17.5664 81.5753 17.4758 81.6532 17.3878C81.7415 17.2998 81.822 17.2195 81.8947 17.1471L82.8219 16.2231C83.0141 16.0315 83.1414 15.884 83.2038 15.7804C83.2714 15.6716 83.2768 15.5679 83.2199 15.4693C83.1682 15.3758 83.0647 15.2512 82.9094 15.0954L82.7153 14.9006L82.8712 14.7453L83.8029 15.6803L78.6137 20.8516C78.4319 21.0328 78.3098 21.1751 78.2474 21.2787C78.1902 21.3772 78.1926 21.4783 78.2547 21.5821C78.3167 21.6859 78.4435 21.8339 78.635 22.0261L78.7593 22.1508L78.6034 22.3061L77.695 21.3945L78.5288 20.5014L78.5132 20.4858C78.1292 20.6407 77.7454 20.7075 77.3617 20.6861C76.9884 20.6647 76.6283 20.48 76.2815 20.132ZM76.4219 19.8989C76.893 20.3508 77.4139 20.515 77.9845 20.3916C78.5551 20.2681 79.1391 19.9087 79.7364 19.3134C80.1728 18.8786 80.495 18.4747 80.703 18.1017C80.9111 17.7287 80.9895 17.3711 80.9382 17.0287C80.8973 16.6864 80.7035 16.3412 80.3567 15.9932C80.0512 15.6868 79.7249 15.5151 79.3775 15.4782C79.0405 15.4413 78.68 15.5262 78.2959 15.733C77.917 15.9449 77.5172 16.2606 77.0964 16.6799C76.6809 17.094 76.3794 17.5031 76.192 17.9072C76.0098 18.3062 75.9392 18.6768 75.9801 19.0192C76.0262 19.3667 76.1734 19.6599 76.4219 19.8989Z" fill="#333333"/>
</svg>
